<?xml version="1.0" encoding="UTF-8" standalone="no"?>
<svg
   version="1.1"
   width="163.2485"
   height="160"
   viewBox="223 498 163.2485 160"
   xmlns="http://www.w3.org/2000/svg">
<g
     id="Layer1003">
    <g
       id="Layer1004">
      <path
         d="m 241.0643,626.2892 v 1.2984 c 0,0.0933 0.0319,0.172 0.0962,0.2364 0.0643,0.0637 0.1431,0.0961 0.2364,0.0961 h 3.1325 c 0.0939,0 0.1721,0.0319 0.237,0.0968 0.0637,0.0643 0.0962,0.1431 0.0962,0.2364 v 0.6969 c 0,0.0933 -0.0325,0.1721 -0.0962,0.2364 -0.0649,0.0637 -0.1431,0.0962 -0.237,0.0962 h -3.1325 c -0.0933,0 -0.1721,0.0324 -0.2364,0.0967 -0.0643,0.0643 -0.0962,0.1431 -0.0962,0.2364 v 1.1801 c 0,0.0927 0.0319,0.1715 0.0962,0.2358 0.0643,0.0643 0.1431,0.0968 0.2364,0.0968 h 3.6157 c 0.0927,0 0.1715,0.0318 0.2358,0.0967 0.0649,0.0643 0.0973,0.1431 0.0973,0.2358 v 0.6866 c 0,0.0932 -0.0324,0.1714 -0.0973,0.2363 -0.0643,0.0643 -0.1431,0.0962 -0.2358,0.0962 h -3.3452 c -0.7207,-0.8754 -1.4211,-1.7676 -2.1053,-2.6731 v -4.848 c 0,-0.0933 0.0318,-0.1721 0.0961,-0.2364 0.0643,-0.0643 0.1431,-0.0968 0.2364,-0.0968 h 5.118 c 0.0927,0 0.1715,0.0325 0.2358,0.0968 0.0649,0.0643 0.0973,0.1431 0.0973,0.2364 v 0.6651 c 0,0.0926 -0.0324,0.1714 -0.0973,0.2357 -0.0643,0.0644 -0.1431,0.0968 -0.2358,0.0968 h -3.6157 c -0.0933,0 -0.1721,0.0324 -0.2364,0.0968 -0.0643,0.0643 -0.0962,0.1431 -0.0962,0.2357 z m 127.2675,5.4425 c 0.5099,-0.6344 1.0116,-1.2752 1.5023,-1.9246 v -4.8376 c 0,-0.0933 -0.0319,-0.1721 -0.0962,-0.2364 -0.0649,-0.0637 -0.1431,-0.0962 -0.2363,-0.0962 h -0.8476 c -0.0933,0 -0.1704,0.0325 -0.2312,0.0962 -0.0608,0.0643 -0.091,0.1431 -0.091,0.2364 z m -112.6,-3.5862 v 4.0022 c 0,0.0932 -0.0319,0.1714 -0.0968,0.2363 -0.0643,0.0643 -0.1431,0.0962 -0.2358,0.0962 h -0.8476 c -0.0857,0 -0.161,-0.0319 -0.2253,-0.0962 -0.0643,-0.0649 -0.0968,-0.1431 -0.0968,-0.2363 v -7.3387 c 0,-0.0933 0.0446,-0.1489 0.1339,-0.1669 0.0898,-0.0179 0.1668,0.002 0.2311,0.0591 l 4.7101,4.4529 c 0.0719,0.0644 0.131,0.0858 0.1773,0.0644 0.0464,-0.0215 0.0701,-0.0788 0.0701,-0.1715 v -4.0775 c 0,-0.0933 0.0319,-0.1721 0.0962,-0.2364 0.0643,-0.0637 0.1431,-0.0962 0.2358,-0.0962 h 0.8372 c 0.0927,0 0.1715,0.0325 0.2358,0.0962 0.0649,0.0643 0.0973,0.1431 0.0973,0.2364 v 7.3288 c 0,0.0927 -0.0452,0.1483 -0.1344,0.1657 -0.0898,0.0185 -0.1703,-0.002 -0.2416,-0.0591 l -4.6997,-4.3776 c -0.0713,-0.0568 -0.1304,-0.0753 -0.1773,-0.0533 -0.0463,0.0214 -0.0695,0.0788 -0.0695,0.1715 z m 19.3562,-2.1888 h -1.577 c -0.0927,0 -0.1715,0.0324 -0.2358,0.0968 -0.0649,0.0643 -0.0968,0.1431 -0.0968,0.2357 v 5.8585 c 0,0.0932 -0.0324,0.1714 -0.0967,0.2363 -0.0644,0.0643 -0.1431,0.0962 -0.2358,0.0962 h -0.8372 c -0.0927,0 -0.1715,-0.0319 -0.2358,-0.0962 -0.0649,-0.0649 -0.0968,-0.1431 -0.0968,-0.2363 v -5.8585 c 0,-0.0926 -0.0324,-0.1714 -0.0967,-0.2357 -0.0643,-0.0644 -0.1431,-0.0968 -0.2358,-0.0968 h -1.588 c -0.0927,0 -0.1715,-0.0324 -0.2358,-0.0968 -0.0643,-0.0643 -0.0973,-0.1431 -0.0973,-0.2357 v -0.6651 c 0,-0.0933 0.033,-0.1721 0.0973,-0.2364 0.0643,-0.0643 0.1431,-0.0968 0.2358,-0.0968 h 5.3324 c 0.0938,0 0.172,0.0325 0.2363,0.0968 0.0643,0.0643 0.0968,0.1431 0.0968,0.2364 v 0.6651 c 0,0.0926 -0.0325,0.1714 -0.0968,0.2357 -0.0643,0.0644 -0.1425,0.0968 -0.2363,0.0968 z m 10.2047,0.3325 v 1.2984 c 0,0.0933 0.0324,0.172 0.0967,0.2364 0.0643,0.0637 0.1431,0.0961 0.2358,0.0961 h 3.1332 c 0.0932,0 0.1714,0.0319 0.2363,0.0968 0.0643,0.0643 0.0962,0.1431 0.0962,0.2364 v 0.6969 c 0,0.0933 -0.0319,0.1721 -0.0962,0.2364 -0.0649,0.0637 -0.1431,0.0962 -0.2363,0.0962 h -3.1332 c -0.0927,0 -0.1715,0.0324 -0.2358,0.0967 -0.0643,0.0643 -0.0967,0.1431 -0.0967,0.2364 v 1.1801 c 0,0.0927 0.0324,0.1715 0.0967,0.2358 0.0643,0.0643 0.1431,0.0968 0.2358,0.0968 h 3.6163 c 0.0927,0 0.1715,0.0318 0.2358,0.0967 0.0649,0.0643 0.0968,0.1431 0.0968,0.2358 v 0.6866 c 0,0.0932 -0.0319,0.1714 -0.0968,0.2363 -0.0643,0.0643 -0.1431,0.0962 -0.2358,0.0962 h -5.1185 c -0.0927,0 -0.1715,-0.0319 -0.2358,-0.0962 -0.0644,-0.0649 -0.0962,-0.1431 -0.0962,-0.2363 v -7.1886 c 0,-0.0933 0.0318,-0.1721 0.0962,-0.2364 0.0643,-0.0643 0.1431,-0.0968 0.2358,-0.0968 h 5.1185 c 0.0927,0 0.1715,0.0325 0.2358,0.0968 0.0649,0.0643 0.0968,0.1431 0.0968,0.2364 v 0.6651 c 0,0.0926 -0.0319,0.1714 -0.0968,0.2357 -0.0643,0.0644 -0.1431,0.0968 -0.2358,0.0968 h -3.6163 c -0.0927,0 -0.1715,0.0324 -0.2358,0.0968 -0.0643,0.0643 -0.0967,0.1431 -0.0967,0.2357 z m 14.3453,6.191 h -0.847 c -0.0933,0 -0.1721,-0.0319 -0.2364,-0.0962 -0.0643,-0.0649 -0.0961,-0.1431 -0.0961,-0.2363 v -7.1886 c 0,-0.0933 0.0318,-0.1721 0.0961,-0.2364 0.0643,-0.0643 0.1431,-0.0968 0.2364,-0.0968 h 3.2403 c 0.4004,0 0.7694,0.0649 1.1048,0.1935 0.3297,0.1431 0.6124,0.3285 0.8482,0.5574 0.1217,0.1222 0.2289,0.2543 0.3221,0.3974 0.0927,0.1431 0.1715,0.2966 0.2358,0.4612 0.1286,0.3366 0.1935,0.701 0.1935,1.0949 0,0.6078 -0.1471,1.1263 -0.4403,1.5556 -0.2288,0.3436 -0.526,0.6153 -0.8904,0.8157 -0.0788,0.0423 -0.1292,0.1014 -0.1501,0.1767 -0.0214,0.0754 -0.004,0.1484 0.0533,0.2202 0.2648,0.3575 0.5168,0.6958 0.7566,1.0139 0.2399,0.3186 0.4879,0.6564 0.7457,1.0144 0.0568,0.0782 0.0736,0.157 0.0481,0.2358 -0.025,0.0788 -0.084,0.1176 -0.1767,0.1176 h -1.084 c -0.0933,0 -0.1895,-0.0249 -0.2897,-0.0753 -0.1002,-0.0493 -0.179,-0.1101 -0.2364,-0.1819 -0.121,-0.1646 -0.241,-0.3274 -0.3592,-0.4884 -0.1176,-0.1605 -0.2375,-0.3233 -0.3597,-0.4884 l -0.708,-0.9977 c -0.0568,-0.0787 -0.1356,-0.1431 -0.2358,-0.1929 -0.1002,-0.0504 -0.197,-0.0747 -0.2897,-0.0747 h -0.8261 c -0.0933,0 -0.1721,0.0318 -0.2364,0.0962 -0.0643,0.0643 -0.0962,0.1431 -0.0962,0.2358 v 1.8348 c 0,0.0932 -0.0301,0.1714 -0.0915,0.2363 -0.0609,0.0643 -0.1373,0.0962 -0.2312,0.0962 z m 0.6553,-3.8301 h 1.738 c 0.1292,0 0.2683,-0.0284 0.4189,-0.0857 0.157,-0.0574 0.2897,-0.1397 0.3963,-0.2474 0.1077,-0.1072 0.2004,-0.2428 0.2792,-0.4073 0.0719,-0.1501 0.1078,-0.3436 0.1078,-0.5794 0,-0.1292 -0.0151,-0.2647 -0.0435,-0.4078 -0.0139,-0.0788 -0.0359,-0.1559 -0.0643,-0.2306 -0.0284,-0.0753 -0.0608,-0.1483 -0.0962,-0.2202 -0.0857,-0.1431 -0.2074,-0.2647 -0.3649,-0.3644 -0.1652,-0.1008 -0.376,-0.1506 -0.6333,-0.1506 h -1.738 c -0.0933,0 -0.1721,0.0324 -0.2364,0.0968 -0.0643,0.0643 -0.0962,0.1431 -0.0962,0.2357 v 2.0278 c 0,0.0933 0.0319,0.172 0.0962,0.2364 0.0643,0.0643 0.1431,0.0967 0.2364,0.0967 z m 14.6141,3.8301 h -0.8476 c -0.0932,0 -0.1703,-0.0319 -0.2311,-0.0962 -0.0609,-0.0649 -0.091,-0.1431 -0.091,-0.2363 v -7.1782 c 0,-0.0933 0.0301,-0.1721 0.091,-0.2364 0.0608,-0.0637 0.1379,-0.0962 0.2311,-0.0962 h 0.8476 c 0.0933,0 0.1715,0.0325 0.2364,0.0962 0.0643,0.0643 0.0962,0.1431 0.0962,0.2364 v 7.1782 c 0,0.0932 -0.0319,0.1714 -0.0962,0.2363 -0.0649,0.0643 -0.1431,0.0962 -0.2364,0.0962 z m 14.4531,-7.5107 v 4.5925 c 0,0.4716 -0.0677,0.8905 -0.2039,1.2549 -0.1356,0.365 -0.3325,0.6871 -0.5898,0.9663 -0.2647,0.2793 -0.5724,0.4867 -0.9229,0.6217 -0.3574,0.1512 -0.7549,0.2259 -1.1911,0.2259 -0.6223,0 -1.1518,-0.1431 -1.588,-0.4293 -0.3505,-0.2143 -0.6402,-0.515 -0.8691,-0.9014 -0.0434,-0.0788 -0.0486,-0.1605 -0.0162,-0.2463 0.0319,-0.0863 0.0875,-0.1465 0.1663,-0.183 l 0.7618,-0.3436 c 0.0858,-0.0353 0.1646,-0.0492 0.2364,-0.0423 0.0713,0.007 0.1182,0.0319 0.1391,0.0753 0.0144,0.0209 0.0301,0.0441 0.0486,0.0696 0.018,0.0249 0.0336,0.048 0.0481,0.0695 0.0782,0.1141 0.1645,0.208 0.2578,0.2792 0.0927,0.0788 0.2109,0.1466 0.354,0.2034 0.1361,0.0573 0.2897,0.0863 0.4612,0.0863 0.3076,0 0.5544,-0.0608 0.7404,-0.1825 0.179,-0.1147 0.318,-0.2648 0.4183,-0.4507 0.0504,-0.0933 0.0932,-0.1843 0.1286,-0.2735 0.0365,-0.0892 0.0608,-0.1848 0.0753,-0.2844 0.0139,-0.1003 0.0255,-0.1918 0.0324,-0.2741 0.007,-0.0817 0.0105,-0.1622 0.0105,-0.241 v -4.5925 c 0,-0.0933 0.0324,-0.1721 0.0967,-0.2364 0.0643,-0.0637 0.1431,-0.0962 0.2358,-0.0962 h 0.8372 c 0.0927,0 0.1721,0.0325 0.2358,0.0962 0.0643,0.0643 0.0967,0.1431 0.0967,0.2364 z m 10.5269,1.3197 v 1.2984 c 0,0.0933 0.0318,0.172 0.0961,0.2364 0.0644,0.0637 0.1431,0.0961 0.2358,0.0961 h 3.1332 c 0.0933,0 0.1715,0.0319 0.2364,0.0968 0.0643,0.0643 0.0961,0.1431 0.0961,0.2364 v 0.6969 c 0,0.0933 -0.0318,0.1721 -0.0961,0.2364 -0.0649,0.0637 -0.1431,0.0962 -0.2364,0.0962 h -3.1332 c -0.0927,0 -0.1714,0.0324 -0.2358,0.0967 -0.0643,0.0643 -0.0961,0.1431 -0.0961,0.2364 v 1.1801 c 0,0.0927 0.0318,0.1715 0.0961,0.2358 0.0644,0.0643 0.1431,0.0968 0.2358,0.0968 h 3.6164 c 0.0927,0 0.1714,0.0318 0.2358,0.0967 0.0648,0.0643 0.0967,0.1431 0.0967,0.2358 v 0.6866 c 0,0.0932 -0.0319,0.1714 -0.0967,0.2363 -0.0644,0.0643 -0.1431,0.0962 -0.2358,0.0962 h -5.1186 c -0.0927,0 -0.1715,-0.0319 -0.2358,-0.0962 -0.0643,-0.0649 -0.0962,-0.1431 -0.0962,-0.2363 v -7.1886 c 0,-0.0933 0.0319,-0.1721 0.0962,-0.2364 0.0643,-0.0643 0.1431,-0.0968 0.2358,-0.0968 h 5.1186 c 0.0927,0 0.1714,0.0325 0.2358,0.0968 0.0648,0.0643 0.0967,0.1431 0.0967,0.2364 v 0.6651 c 0,0.0926 -0.0319,0.1714 -0.0967,0.2357 -0.0644,0.0644 -0.1431,0.0968 -0.2358,0.0968 h -3.6164 c -0.0927,0 -0.1714,0.0324 -0.2358,0.0968 -0.0643,0.0643 -0.0961,0.1431 -0.0961,0.2357 z m 14.3453,6.191 h -0.8476 c -0.0932,0 -0.172,-0.0319 -0.2363,-0.0962 -0.0638,-0.0649 -0.0962,-0.1431 -0.0962,-0.2363 v -7.1886 c 0,-0.0933 0.0324,-0.1721 0.0962,-0.2364 0.0643,-0.0643 0.1431,-0.0968 0.2363,-0.0968 h 3.2403 c 0.4004,0 0.7694,0.0649 1.1049,0.1935 0.3296,0.1431 0.6123,0.3285 0.8481,0.5574 0.1217,0.1222 0.2289,0.2543 0.3222,0.3974 0.0927,0.1431 0.1715,0.2966 0.2358,0.4612 0.1286,0.3366 0.1935,0.701 0.1935,1.0949 0,0.6078 -0.1466,1.1263 -0.4403,1.5556 -0.2289,0.3436 -0.5261,0.6153 -0.8905,0.8157 -0.0788,0.0423 -0.1292,0.1014 -0.1501,0.1767 -0.0214,0.0754 -0.004,0.1484 0.0533,0.2202 0.2648,0.3575 0.5168,0.6958 0.7567,1.0139 0.2398,0.3186 0.4878,0.6564 0.7456,1.0144 0.0568,0.0782 0.0736,0.157 0.0481,0.2358 -0.0249,0.0788 -0.084,0.1176 -0.1767,0.1176 h -1.084 c -0.0933,0 -0.1894,-0.0249 -0.2897,-0.0753 -0.1002,-0.0493 -0.179,-0.1101 -0.2363,-0.1819 -0.1211,-0.1646 -0.241,-0.3274 -0.3592,-0.4884 -0.1176,-0.1605 -0.2376,-0.3233 -0.3598,-0.4884 l -0.708,-0.9977 c -0.0568,-0.0787 -0.1356,-0.1431 -0.2358,-0.1929 -0.1002,-0.0504 -0.197,-0.0747 -0.2897,-0.0747 h -0.8261 c -0.0933,0 -0.1721,0.0318 -0.2364,0.0962 -0.0643,0.0643 -0.0962,0.1431 -0.0962,0.2358 v 1.8348 c 0,0.0932 -0.0301,0.1714 -0.0915,0.2363 -0.0608,0.0643 -0.1373,0.0962 -0.2306,0.0962 z m 0.6547,-3.8301 h 1.738 c 0.1292,0 0.2683,-0.0284 0.4189,-0.0857 0.157,-0.0574 0.2897,-0.1397 0.3963,-0.2474 0.1078,-0.1072 0.2005,-0.2428 0.2792,-0.4073 0.0719,-0.1501 0.1078,-0.3436 0.1078,-0.5794 0,-0.1292 -0.0151,-0.2647 -0.0434,-0.4078 -0.014,-0.0788 -0.0354,-0.1559 -0.0644,-0.2306 -0.0283,-0.0753 -0.0608,-0.1483 -0.0961,-0.2202 -0.0858,-0.1431 -0.2074,-0.2647 -0.365,-0.3644 -0.1651,-0.1008 -0.376,-0.1506 -0.6333,-0.1506 h -1.738 c -0.0933,0 -0.1721,0.0324 -0.2364,0.0968 -0.0643,0.0643 -0.0962,0.1431 -0.0962,0.2357 v 2.0278 c 0,0.0933 0.0319,0.172 0.0962,0.2364 0.0643,0.0643 0.1431,0.0967 0.2364,0.0967 z"
         style="fill:#000000;fill-rule:evenodd"
         id="path6" />
      <path
         d="m 234.1063,619.5936 v -12.3802 h 5.9372 l 15.993,13.6391 h 16.4739 l -22.3578,-18.1859 20.6464,-17.7044 h -16.6349 l -14.1206,13.1582 h -5.9372 v -12.9438 h -10.3658 c 0.865,12.4404 4.5277,24.1219 10.3658,34.417 z m 141.5271,0.9287 c 6.1493,-10.5188 10.0095,-22.5293 10.9005,-35.3457 h -10.9005 z m -101.893,-35.3457 v 16.4205 c 0.0539,5.9905 0.0539,5.9905 0.1605,7.4349 0.2676,4.9204 0.8562,7.0067 2.5676,8.772 2.6743,2.8341 7.0606,3.5827 20.5926,3.5827 8.0761,0 11.8738,-0.2132 15.0834,-0.8557 4.0647,-0.8557 6.7923,-3.6899 7.3809,-7.7553 0.321,-2.5138 0.3743,-3.1024 0.5354,-11.1786 v -16.4205 h -10.8583 v 16.4205 c 0,0.8019 -0.0533,2.621 -0.1071,3.9582 -0.2144,3.1024 -0.4276,4.0647 -1.2833,4.9737 -1.1767,1.2839 -3.4767,1.6048 -10.9115,1.6048 -9.2534,0 -11.3397,-0.588 -11.9277,-3.4234 -0.2677,-1.4437 -0.2677,-1.497 -0.3749,-7.1133 v -16.4205 z m 51.1875,0 v 35.6759 h 10.8577 v -13.6391 h 5.9372 l 15.9924,13.6391 h 16.4739 l -22.3572,-18.1859 20.6458,-17.7044 h -16.6344 l -14.1205,13.1582 h -5.9372 v -12.9438 z"
         style="fill:#000000;fill-rule:evenodd"
         id="path7" />
    </g>
    <g
       id="Layer1005">
      <path
         d="m 305.138,516.4848 c 28.0278,0 51.8689,18.1997 60.3748,43.3952 -0.1148,0.1906 -5.7396,9.4429 -15.2847,8.0798 -9.6434,-1.3779 -28.8735,-8.0974 -45.0901,-8.0974 -16.2178,0 -35.446,6.7195 -45.0912,8.0974 -9.5529,1.365 -15.1777,-7.9065 -15.2828,-8.0809 8.504,-25.1952 32.345,-43.3941 60.374,-43.3941 z m 0,-17.9098 c -44.977,0 -81.5717,36.5637 -81.6247,81.5286 H 386.7618 C 386.7088,535.1387 350.1147,498.575 305.138,498.575 Z"
         style="fill:#000000;fill-rule:evenodd"
         id="path8" />
      <path
         d="m 353.4396,645.9244 -1.1969,0.005 -0.3344,8e-4 -2.096,0.008 -1.1779,0.005 -3.4828,0.0126 c -0.5401,0.002 -0.9809,-0.3065 -0.9835,-0.6895 -0.004,-0.3827 0.4326,-0.6944 0.9727,-0.6967 l 4.1463,-0.0154 v 7e-4 c -0.003,0.0214 -0.006,0.045 -0.009,0.0656 -0.0138,0.1098 -0.0257,0.2029 -0.0352,0.2775 -0.019,0.1489 -0.0471,0.4984 -0.0471,0.4984 l 2.6087,0.006 c 0,0 0.007,-0.0777 0.0211,-0.2276 0.006,-0.0746 0.0146,-0.1674 0.0246,-0.2778 0.005,-0.0555 0.0103,-0.1152 0.016,-0.179 0.003,-0.0542 0.005,-0.1136 0.008,-0.1728 v -2e-4 l 1.5541,-0.006 c 0.5401,-0.002 0.9809,0.3068 0.984,0.6895 0.004,0.383 -0.4328,0.6947 -0.9732,0.6965 z m -4.5336,1.827 c -0.3043,3.1472 -6.3638,8.4716 -6.7935,8.8049 -0.1898,0.1564 -1.0123,0.8711 -1.3276,1.1044 0.1767,10e-4 3.3112,-1.6213 4.458,-2.6714 1.6303,-1.4935 3.8385,-3.409 4.9845,-5.6405 0.2736,-0.5334 0.5686,-1.0614 0.8022,-1.6033 -0.6757,0.004 -1.3845,0.006 -2.1236,0.006 z m -19.9737,-1.6053 1.0249,-0.8349 0.3297,-0.28 1.324,-1.1422 c 0.1741,-0.152 0.3493,-0.3035 0.5246,-0.4555 -27.901,0.598 -79.9203,1.761 -79.9203,1.761 0,0 -0.6291,0.036 -0.6738,0.27 -0.001,10e-4 -0.005,0.002 -0.005,0.003 0,0.004 0.002,0.008 0.002,0.0121 0,0.005 -0.002,0.008 -0.002,0.0131 0,8e-4 0.004,8e-4 0.005,0.002 0.0486,0.2343 0.678,0.2657 0.678,0.2657 0,0 45.2826,0.7978 75.5482,1.2702 l 0.4501,-0.3369 c 0.2394,-0.1785 0.477,-0.3583 0.7144,-0.5475 z m 22.931,-3.05 -10e-4,-0.0149 c -0.0396,-0.4444 -0.0921,-0.9454 -0.2441,-1.5068 -0.1644,-0.6265 -0.4282,-1.3305 -0.8955,-2.0192 -0.4596,-0.6885 -1.1411,-1.3428 -1.9824,-1.7823 -0.8353,-0.4565 -1.798,-0.6874 -2.7732,-0.7587 -0.9783,-0.0612 -1.9803,0.0347 -2.9738,0.2667 -0.9964,0.2233 -1.9827,0.5885 -2.954,1.0483 -0.2405,0.1235 -0.4807,0.2361 -0.7248,0.374 -0.2268,0.1283 -0.4411,0.2379 -0.6825,0.3847 -0.4792,0.2796 -0.9398,0.5658 -1.3984,0.8742 -1.5212,1.0094 -2.9738,2.2094 -4.4191,3.457 -0.3066,0.2649 -0.6132,0.5311 -0.9197,0.7986 -0.4388,0.3783 -0.8809,0.76 -1.3268,1.1445 l -0.3352,0.2847 -0.3345,0.2736 c -0.231,0.1877 -0.4625,0.3757 -0.6952,0.565 -0.241,0.1919 -0.4825,0.3748 -0.7248,0.5558 -0.2258,0.169 -0.4521,0.3361 -0.681,0.5082 -0.4925,0.3343 -0.9732,0.6908 -1.4811,1.0123 -2.0143,1.3134 -4.1726,2.4903 -6.4142,3.4941 -2.2439,0.9997 -4.5627,1.8404 -6.8917,2.523 -1.1661,0.333 -2.3322,0.6391 -3.4949,0.8942 -1.1622,0.271 -2.32,0.4678 -3.4617,0.611 -4.5902,0.5728 -8.9541,0.2552 -12.6195,-0.3052 -3.6749,-0.5669 -6.679,-1.3767 -8.7597,-1.9942 -1.0405,-0.311 -1.8522,-0.5772 -2.4036,-0.7631 -0.5506,-0.1885 -0.8446,-0.2888 -0.8446,-0.2888 0,0 0.2914,0.1077 0.8372,0.3096 0.5472,0.2004 1.352,0.4869 2.3853,0.8243 2.0673,0.67 5.0555,1.5578 8.734,2.22 3.6705,0.6553 8.0594,1.0894 12.7414,0.6252 1.1725,-0.1142 2.3542,-0.2975 3.5375,-0.5203 1.1867,-0.2144 2.3793,-0.4801 3.5762,-0.7741 2.3887,-0.6046 4.7808,-1.3723 7.1124,-2.3087 2.3293,-0.94 4.591,-2.0644 6.7218,-3.3442 0.5377,-0.3127 1.0493,-0.663 1.5716,-0.9909 0.5082,-0.3523 1.0326,-0.7049 1.5179,-1.0627 0.2392,-0.1803 0.4781,-0.3595 0.716,-0.5385 l 0.1211,-0.0921 0.2454,-0.1862 0.3523,-0.2772 c 0.4643,-0.3712 0.9249,-0.74 1.3819,-1.1052 0.9276,-0.7515 1.8342,-1.479 2.7341,-2.1544 0.8572,-0.644 1.7092,-1.2414 2.5677,-1.7653 0.4372,-0.2708 0.8817,-0.5236 1.3068,-0.7512 0.2055,-0.1168 0.4536,-0.233 0.6753,-0.3483 0.2045,-0.1064 0.4267,-0.2011 0.6366,-0.2996 0.8572,-0.3678 1.7136,-0.6489 2.5425,-0.8016 1.6534,-0.3318 3.1937,-0.1564 4.1651,0.4295 0.9871,0.5658 1.4106,1.4911 1.5994,2.3411 0.0694,0.3184 0.1078,0.6301 0.1263,0.9192 l 0.003,0.0527 c -3.3274,0.0504 -8.4343,0.1307 -12.8766,0.2132 -0.1603,0.1168 -0.3192,0.2323 -0.4859,0.3573 -0.9384,0.7049 -1.897,1.4767 -2.721,2.1449 l -1.3841,1.1069 -0.1708,0.1342 c 11.1872,0.169 21.1531,0.3033 22.4743,0.275 3.4943,-0.0739 3.412,-1.9842 3.3989,-2.1488 0.0103,-0.1651 0.062,-2.0763 -3.4334,-2.1241 -0.393,-0.005 -0.8107,-0.008 -1.2394,-0.0113 z"
         style="fill:#000000;fill-rule:evenodd"
         id="path9" />
      <path
         d="m 265.4951,539.4378 -1.3593,1.3361 c -0.0447,0.044 -0.0971,0.0652 -0.1576,0.0648 -0.0612,0 -0.1133,-0.0228 -0.1573,-0.0672 l -0.3123,-0.3183 c -0.044,-0.0444 -0.0655,-0.0971 -0.0652,-0.158 0,-0.0608 0.0228,-0.1136 0.0672,-0.157 l 1.36,-1.3367 c 0.044,-0.0434 0.0968,-0.0649 0.158,-0.0642 0.0605,6e-4 0.1129,0.0232 0.1566,0.0679 l 0.3122,0.3173 c 0.0441,0.0447 0.0659,0.0975 0.0653,0.1583 -4e-4,0.0615 -0.0229,0.1136 -0.0676,0.157 z m 75.7249,-1.1415 -0.2776,0.3499 c -0.039,0.0487 -0.0881,0.0766 -0.1482,0.084 -0.0615,0.007 -0.116,-0.009 -0.1654,-0.048 l -2.5072,-1.9882 c -0.0487,-0.039 -0.0759,-0.0881 -0.0806,-0.1473 -0.006,-0.0591 0.0111,-0.1129 0.0497,-0.1623 l 0.3489,-0.439 c 0.0387,-0.0494 0.0921,-0.0911 0.16,-0.1264 0.0672,-0.0346 0.1314,-0.0527 0.1933,-0.0527 0.0366,-10e-4 0.0776,-0.002 0.1223,-0.004 0.0441,-0.002 0.0915,-0.004 0.1425,-0.006 0.1056,-0.002 0.2121,-0.004 0.3194,-0.008 0.1065,-0.005 0.2181,-0.006 0.3347,-0.006 0.1147,-0.006 0.2306,-0.0111 0.3459,-0.0138 0.116,-0.004 0.2336,-0.007 0.3523,-0.0104 0.1122,-0.002 0.2195,-0.005 0.322,-0.006 0.1022,-0.002 0.197,-0.004 0.2857,-0.008 0.1055,-0.002 0.1986,-0.006 0.2797,-0.0114 0.082,-0.006 0.1573,-0.0144 0.2278,-0.0262 0.0706,-0.0121 0.1345,-0.0249 0.1923,-0.0407 0.0578,-0.0148 0.1119,-0.0339 0.16,-0.0564 0.0457,-0.0189 0.0887,-0.0421 0.1281,-0.0686 0.0393,-0.0272 0.0729,-0.0538 0.1001,-0.0803 0.0592,-0.0518 0.1153,-0.1113 0.1691,-0.1792 0.0447,-0.0561 0.08,-0.1099 0.1066,-0.1634 0.0268,-0.0521 0.0463,-0.1058 0.0605,-0.1626 0.0195,-0.1009 0.0147,-0.1994 -0.0135,-0.2952 -0.0289,-0.1031 -0.0729,-0.1899 -0.1328,-0.2611 -0.0712,-0.0881 -0.1388,-0.1563 -0.2033,-0.2067 -0.1314,-0.1049 -0.2619,-0.1594 -0.3923,-0.1654 -0.1307,-0.005 -0.2548,0.0124 -0.3724,0.0541 -0.0632,0.0168 -0.1136,0.037 -0.1523,0.0578 -0.0383,0.0222 -0.0806,0.0424 -0.1257,0.0609 -0.0393,0.0184 -0.0874,0.0242 -0.1442,0.0184 -0.0564,-0.005 -0.1132,-0.045 -0.1704,-0.1203 l -0.3193,-0.4185 c -0.0329,-0.0507 -0.0464,-0.1058 -0.04,-0.1643 0.007,-0.0592 0.0376,-0.1039 0.0928,-0.1338 0.0386,-0.0182 0.0776,-0.038 0.1159,-0.0598 0.0387,-0.0216 0.0804,-0.0411 0.1261,-0.0609 0.1791,-0.0783 0.3721,-0.1297 0.5811,-0.1539 0.2074,-0.0303 0.4299,-0.0168 0.6659,0.041 0.2306,0.0487 0.4598,0.1633 0.6894,0.3452 0.2403,0.1906 0.4228,0.3969 0.5475,0.6181 0.1133,0.2121 0.1829,0.4292 0.2084,0.6518 0.0226,0.2262 0.002,0.4329 -0.0618,0.6211 -0.0656,0.1987 -0.1593,0.3755 -0.2817,0.5294 -0.1217,0.1543 -0.2571,0.2824 -0.406,0.3849 -0.1483,0.1025 -0.3049,0.1801 -0.4693,0.2329 -0.0857,0.0306 -0.1744,0.0555 -0.2655,0.0746 -0.0921,0.0185 -0.1849,0.0336 -0.2793,0.0447 -0.0945,0.0111 -0.1933,0.0209 -0.2988,0.0296 -0.1042,0.009 -0.2114,0.0121 -0.321,0.0111 -0.0451,-0.005 -0.0915,-0.005 -0.1409,-10e-4 -0.049,0.004 -0.1042,0.006 -0.1657,0.006 -0.0578,0.003 -0.118,0.006 -0.1805,0.008 -0.0632,0.002 -0.1277,0.002 -0.1926,-10e-4 -0.0682,0.002 -0.1361,0.002 -0.2043,0.003 -0.0679,10e-4 -0.1362,0.002 -0.2041,0.003 -0.0342,0.003 -0.0608,0.005 -0.0816,0.004 -0.0209,-6e-4 -0.0464,-10e-4 -0.077,-6e-4 -0.0578,0.003 -0.0904,0.0208 -0.0985,0.0544 -0.008,0.0336 0.01,0.0679 0.0551,0.1039 l 1.4541,1.1529 c 0.0487,0.0386 0.077,0.0884 0.084,0.1489 0.007,0.0608 -0.009,0.1153 -0.0474,0.1637 z m 5.0379,2.5572 -1.359,-1.3357 c -0.0447,-0.0441 -0.0672,-0.0962 -0.0679,-0.157 -6e-4,-0.0615 0.0215,-0.1143 0.0649,-0.159 l 0.3123,-0.3173 c 0.044,-0.0447 0.0961,-0.0672 0.1576,-0.0672 0.0608,-0.001 0.1136,0.0208 0.158,0.0642 l 1.3593,1.3367 c 0.044,0.0434 0.0665,0.0955 0.0672,0.157 7e-4,0.0609 -0.0208,0.1136 -0.0649,0.158 l -0.3122,0.3176 c -0.0441,0.0447 -0.0962,0.0673 -0.157,0.0676 -0.0615,7e-4 -0.1143,-0.0212 -0.1583,-0.0649 z m -78.3198,-6.0832 0.5404,0.682 c 0.039,0.0481 0.0888,0.076 0.1496,0.0834 0.0609,0.006 0.1153,-0.009 0.164,-0.0474 l 1.6461,-1.3048 c 0.0487,-0.0394 0.1035,-0.0548 0.1633,-0.0481 0.0615,0.007 0.1106,0.0349 0.1496,0.0837 l 0.2901,0.3667 c 0.0389,0.0484 0.0551,0.1028 0.048,0.1644 -0.007,0.0601 -0.0353,0.1095 -0.084,0.1482 l -1.6453,1.3055 c -0.0488,0.038 -0.0763,0.0884 -0.0841,0.1489 -0.006,0.0608 0.009,0.1156 0.0478,0.1644 l 0.4917,0.6198 c 0.0383,0.0487 0.0887,0.0766 0.1489,0.0837 0.0609,0.007 0.116,-0.009 0.1644,-0.0478 l 1.8991,-1.5055 c 0.0494,-0.0389 0.1038,-0.0551 0.164,-0.048 0.0609,0.007 0.1106,0.0353 0.1496,0.0837 l 0.2857,0.3606 c 0.0387,0.0491 0.0548,0.1036 0.0474,0.1644 -0.006,0.0608 -0.0346,0.1103 -0.0834,0.1489 l -2.6883,2.132 c -0.0491,0.0387 -0.1035,0.0545 -0.1644,0.0474 -0.0608,-0.007 -0.1102,-0.0346 -0.1489,-0.084 l -2.9948,-3.7753 c -0.0387,-0.0495 -0.0545,-0.1039 -0.0468,-0.1647 0.006,-0.0602 0.034,-0.11 0.0834,-0.149 l 2.688,-2.132 c 0.0494,-0.0386 0.1039,-0.0544 0.1647,-0.0467 0.0602,0.006 0.1099,0.0339 0.1489,0.0833 l 0.277,0.3493 c 0.0386,0.0487 0.0544,0.1032 0.0474,0.1647 -0.007,0.0601 -0.0343,0.1099 -0.0834,0.1489 l -1.8991,1.5062 c -0.0487,0.0383 -0.077,0.088 -0.084,0.1482 -0.007,0.0608 0.009,0.116 0.0474,0.165 z m 5.54,-0.1035 0.0168,-0.5381 c 3e-4,-0.0629 0.0218,-0.1136 0.0659,-0.1526 0.043,-0.0387 0.0961,-0.0578 0.1586,-0.0572 0.2545,-0.003 0.4944,-0.0181 0.7196,-0.047 0.3026,-0.0323 0.5876,-0.1331 0.8552,-0.3029 0.1378,-0.087 0.248,-0.1815 0.3307,-0.2847 0.079,-0.0897 0.1398,-0.1906 0.1825,-0.3035 0.0373,-0.1025 0.0521,-0.2003 0.0454,-0.2914 -0.005,-0.0881 -0.0303,-0.1691 -0.0766,-0.242 -0.0532,-0.0847 -0.1308,-0.1442 -0.2306,-0.1768 -0.0891,-0.0232 -0.194,-0.0283 -0.315,-0.0138 -0.0575,0.008 -0.1176,0.0208 -0.1808,0.038 -0.0632,0.0164 -0.1321,0.0376 -0.2071,0.0621 -0.0712,0.0226 -0.1418,0.0474 -0.2124,0.0747 -0.0702,0.0279 -0.1439,0.0574 -0.2202,0.0887 -0.0497,0.0195 -0.1042,0.0424 -0.1633,0.0649 -0.0598,0.0232 -0.1207,0.047 -0.1856,0.0706 -0.1273,0.0581 -0.2685,0.1048 -0.4221,0.1391 -0.153,0.0457 -0.3089,0.0736 -0.4676,0.0827 -0.1593,0.0158 -0.3186,0.006 -0.4779,-0.0296 -0.1537,-0.0275 -0.3042,-0.0914 -0.4521,-0.1906 -0.1412,-0.0978 -0.2669,-0.2339 -0.3775,-0.4083 -0.1613,-0.2548 -0.2454,-0.5059 -0.2528,-0.7503 -0.004,-0.2306 0.0441,-0.4507 0.1432,-0.6611 0.0995,-0.1926 0.238,-0.3772 0.4171,-0.5526 0.1644,-0.161 0.3466,-0.3042 0.5446,-0.4293 0.1865,-0.1183 0.3603,-0.2114 0.5213,-0.2793 0.0813,-0.0336 0.1607,-0.0632 0.2393,-0.0874 0.0783,-0.0232 0.1567,-0.0457 0.2336,-0.0665 0.0804,-0.0168 0.1604,-0.0293 0.2404,-0.0373 0.08,-0.008 0.1586,-0.0138 0.2359,-0.0172 0.0562,-10e-4 0.1106,-10e-4 0.1614,0 0.0527,10e-4 0.1085,0 0.168,-0.004 0.0649,0.004 0.117,0.0282 0.156,0.0712 0.0386,0.0441 0.0561,0.0985 0.0521,0.1634 l -0.0249,0.526 c -0.004,0.0649 -0.0289,0.1177 -0.0746,0.158 -0.0454,0.04 -0.0992,0.0599 -0.1617,0.0599 -0.2225,-0.002 -0.4208,0.0161 -0.5963,0.0531 -0.2393,0.0437 -0.4682,0.1344 -0.687,0.2729 -0.0367,0.0232 -0.0746,0.0504 -0.1146,0.081 -0.04,0.0309 -0.0794,0.0652 -0.1194,0.1008 -0.08,0.0797 -0.1509,0.1664 -0.2097,0.2602 -0.0279,0.0464 -0.0518,0.0921 -0.0702,0.1381 -0.0192,0.0461 -0.0323,0.0942 -0.04,0.1446 -0.0121,0.0981 0.0104,0.1926 0.0665,0.2817 0.0565,0.0887 0.1361,0.1438 0.2393,0.1626 0.1032,0.0205 0.2185,0.0189 0.3452,-0.006 0.0656,-0.0121 0.1311,-0.0282 0.196,-0.0467 0.0649,-0.0188 0.1328,-0.0383 0.204,-0.0608 0.0713,-0.0222 0.1395,-0.0461 0.2061,-0.071 0.0668,-0.0248 0.1334,-0.0474 0.2006,-0.0672 0.0498,-0.0195 0.1025,-0.0393 0.1587,-0.0578 0.0568,-0.0185 0.1153,-0.0417 0.1771,-0.0696 0.0622,-0.0279 0.1281,-0.0531 0.1977,-0.0776 0.0695,-0.0242 0.1415,-0.0457 0.2154,-0.0642 0.0373,-0.0121 0.0773,-0.0232 0.119,-0.0326 0.0427,-0.01 0.0834,-0.0185 0.1234,-0.0273 0.0618,-0.0104 0.1337,-0.0191 0.2178,-0.0265 0.0827,-0.007 0.1576,-0.009 0.2225,-0.005 0.045,0 0.088,0.003 0.1284,0.008 0.04,0.006 0.08,0.0127 0.12,0.0221 0.1657,0.037 0.3169,0.1059 0.4544,0.2064 0.1506,0.1035 0.2877,0.2541 0.4135,0.4528 0.1438,0.2272 0.2302,0.4537 0.2594,0.679 0.0263,0.2221 -10e-4,0.4346 -0.0816,0.6386 -0.0797,0.2154 -0.2044,0.4124 -0.3735,0.5939 -0.1791,0.1923 -0.3899,0.3654 -0.6332,0.5197 -0.2353,0.1482 -0.4514,0.2595 -0.6484,0.3331 -0.1849,0.0763 -0.3741,0.1314 -0.5691,0.164 -0.0907,0.0178 -0.1818,0.0306 -0.2722,0.04 -0.0905,0.009 -0.1812,0.0138 -0.2716,0.0145 -0.0558,0.001 -0.1123,0.002 -0.1698,0.001 -0.0574,-0.001 -0.1183,-0.003 -0.1832,-0.008 -0.0631,0 -0.1136,-0.0215 -0.1522,-0.0655 -0.039,-0.0434 -0.0585,-0.0962 -0.0578,-0.1587 z m 5.8096,-7.4361 -0.9318,0.5002 c -0.0548,0.0295 -0.0907,0.0736 -0.1092,0.1321 -0.0168,0.0584 -0.0111,0.1146 0.0185,0.17 l 1.8574,3.4601 c 0.0296,0.0551 0.0353,0.1113 0.0175,0.1698 -0.0168,0.0584 -0.0542,0.1025 -0.1086,0.132 l -0.4941,0.2653 c -0.0551,0.0295 -0.1119,0.0352 -0.1711,0.0181 -0.0578,-0.0181 -0.1012,-0.0541 -0.1314,-0.1089 l -1.8568,-3.4601 c -0.0296,-0.0554 -0.0743,-0.0914 -0.1321,-0.1096 -0.0585,-0.0171 -0.1153,-0.0107 -0.1697,0.0182 l -0.9385,0.5039 c -0.0544,0.0292 -0.1112,0.0349 -0.1697,0.0174 -0.0585,-0.0178 -0.1025,-0.0544 -0.1318,-0.1089 l -0.2107,-0.3926 c -0.0303,-0.0558 -0.036,-0.1119 -0.0185,-0.17 0.0178,-0.0589 0.0544,-0.1029 0.1089,-0.1318 l 3.1498,-1.6914 c 0.0545,-0.0289 0.1113,-0.0353 0.1704,-0.0171 0.0578,0.0171 0.1015,0.0537 0.1311,0.1089 l 0.2114,0.3926 c 0.0289,0.0551 0.0353,0.1112 0.0179,0.1697 -0.0179,0.0585 -0.0538,0.1032 -0.1089,0.1321 z m 2.1105,3.5626 0.441,-5.5572 c 0.005,-0.0638 0.0386,-0.1089 0.1015,-0.1337 0.0618,-0.0256 0.117,-0.0165 0.1654,0.0258 l 4.1854,3.6826 c 0.0464,0.0377 0.0665,0.078 0.0615,0.122 -0.006,0.0441 -0.0376,0.077 -0.0958,0.1009 l -0.606,0.2457 c -0.0578,0.0239 -0.1234,0.0289 -0.1953,0.0175 -0.0723,-0.0128 -0.1298,-0.0407 -0.1741,-0.0854 l -0.3617,-0.319 c -0.0467,-0.0376 -0.1049,-0.0632 -0.1748,-0.076 -0.0696,-0.0141 -0.1341,-0.008 -0.1912,0.0152 l -1.8934,0.767 c -0.0578,0.0235 -0.1089,0.0649 -0.152,0.124 -0.0433,0.0589 -0.0652,0.1194 -0.0658,0.1819 l -0.0343,0.4716 c -0.005,0.0642 -0.0279,0.125 -0.0689,0.1828 -0.041,0.0588 -0.0904,0.0992 -0.1483,0.1224 l -0.607,0.2463 c -0.0575,0.0232 -0.1039,0.0212 -0.1382,-0.006 -0.0339,-0.0279 -0.0504,-0.0703 -0.048,-0.1281 z m 1.3865,-2.1912 0.9859,-0.3997 c 0.0581,-0.0238 0.0887,-0.0584 0.0941,-0.1045 0.004,-0.0457 -0.0141,-0.0884 -0.0565,-0.1284 l -0.965,-0.8887 c -0.044,-0.0454 -0.0834,-0.0598 -0.1193,-0.0454 -0.036,0.0145 -0.0535,0.0528 -0.0545,0.1153 l -0.081,1.3129 c -7e-4,0.0625 0.0178,0.1072 0.0538,0.1335 0.037,0.0272 0.084,0.0282 0.1425,0.005 z m 7.4139,-4.4147 c -0.0121,0.1338 -0.037,0.2555 -0.076,0.3657 -0.041,0.1163 -0.1058,0.2222 -0.1939,0.3167 -0.037,0.046 -0.0824,0.0887 -0.1351,0.1287 -0.0424,0.0266 -0.0602,0.043 -0.0538,0.0487 0.006,0.005 0.037,0.008 0.0921,0.007 0.0713,0.005 0.1371,0.0105 0.1993,0.0182 0.1368,0.0255 0.2693,0.081 0.398,0.164 0.1314,0.0773 0.2467,0.1765 0.3465,0.2975 0.0972,0.1173 0.1684,0.2538 0.2131,0.4104 0.0787,0.277 0.1042,0.5237 0.076,0.7415 -0.0313,0.2235 -0.1002,0.4097 -0.2081,0.5596 -0.1035,0.1594 -0.246,0.2898 -0.4275,0.3906 -0.0898,0.0504 -0.1835,0.0971 -0.281,0.1395 -0.0978,0.043 -0.202,0.08 -0.3129,0.1113 l -2.1237,0.603 c -0.0605,0.0168 -0.1173,0.0111 -0.1704,-0.0192 -0.0534,-0.0292 -0.0881,-0.0746 -0.1055,-0.1341 l -1.3156,-4.6362 c -0.0168,-0.0601 -0.0111,-0.117 0.0191,-0.1704 0.0296,-0.0531 0.074,-0.0881 0.1345,-0.1052 l 2.0137,-0.5714 c 0.1059,-0.0299 0.206,-0.0538 0.3018,-0.0706 0.0945,-0.0168 0.1906,-0.0296 0.2878,-0.0366 0.203,-0.008 0.3801,0.0215 0.5337,0.0877 0.1674,0.0618 0.3133,0.1748 0.4404,0.3388 0.1263,0.1482 0.2322,0.3701 0.3156,0.6645 0.0302,0.1066 0.0406,0.2232 0.0319,0.3499 z m -2.3707,1.0249 0.9758,-0.277 c 0.0961,-0.0272 0.1771,-0.0699 0.2403,-0.1281 0.0551,-0.0504 0.1015,-0.1156 0.1385,-0.1963 0.0306,-0.0682 0.0474,-0.1482 0.0514,-0.2393 0.005,-0.0706 -0.005,-0.1499 -0.0295,-0.2376 -0.0212,-0.074 -0.0555,-0.1419 -0.1029,-0.2027 -0.0548,-0.0696 -0.1086,-0.1187 -0.1617,-0.1489 -0.0544,-0.034 -0.1193,-0.0608 -0.1943,-0.0793 -0.0695,-0.0152 -0.1408,-0.0121 -0.2144,0.009 l -1.045,0.2965 c -0.0595,0.0168 -0.1049,0.0524 -0.1351,0.1048 -0.029,0.0542 -0.0357,0.111 -0.0185,0.1711 l 0.2198,0.7745 c 0.0171,0.0605 0.0524,0.1048 0.1052,0.1344 0.0541,0.0296 0.1106,0.036 0.1704,0.0192 z m 1.9818,1.6877 c 0.0598,-0.0515 0.1096,-0.1227 0.1486,-0.2138 0.0403,-0.0864 0.0632,-0.1721 0.0682,-0.2588 0.0128,-0.0784 0.006,-0.1637 -0.0202,-0.2562 -0.047,-0.1663 -0.1502,-0.291 -0.3082,-0.3754 -0.1522,-0.0817 -0.3448,-0.0898 -0.5754,-0.0245 l -1.0514,0.2984 c -0.0599,0.0175 -0.1042,0.0528 -0.1345,0.1059 -0.0296,0.0535 -0.0366,0.1103 -0.0198,0.1701 l 0.244,0.8578 c 0.0168,0.0598 0.0528,0.1049 0.1056,0.1351 0.0537,0.0289 0.1099,0.036 0.1697,0.0192 l 1.1556,-0.3281 c 0.0881,-0.0249 0.16,-0.0682 0.2178,-0.1297 z m 6.5595,-1.2225 0.0904,0.4369 c 0.0121,0.0612 0.002,0.1177 -0.0319,0.1681 -0.033,0.0514 -0.0804,0.0827 -0.1419,0.0955 l -3.2748,0.6762 c -0.0615,0.0125 -0.1177,0.002 -0.1681,-0.0316 -0.0518,-0.0329 -0.0837,-0.0803 -0.0958,-0.1418 l -0.9744,-4.7192 c -0.0128,-0.0615 -0.002,-0.1173 0.0312,-0.1681 0.0337,-0.0511 0.0807,-0.083 0.1419,-0.0958 l 0.5492,-0.1136 c 0.0615,-0.0121 0.1177,-0.002 0.1687,0.032 0.0511,0.0329 0.0824,0.0806 0.0952,0.1421 l 0.7942,3.8463 c 0.0121,0.0602 0.0447,0.1076 0.0948,0.1412 0.0518,0.0336 0.1079,0.044 0.1688,0.0319 l 2.289,-0.4726 c 0.0615,-0.0127 0.1176,-0.002 0.168,0.0313 0.0515,0.0336 0.0827,0.0803 0.0955,0.1412 z m 2.1774,0.4228 -0.5637,0.0736 c -0.0622,0.008 -0.1159,-0.006 -0.1616,-0.0443 -0.0458,-0.0374 -0.073,-0.0871 -0.0814,-0.1489 l -0.6238,-4.771 c -0.008,-0.0622 0.006,-0.1173 0.04,-0.1654 0.0346,-0.0474 0.0833,-0.0756 0.1455,-0.084 l 0.5637,-0.0733 c 0.0612,-0.008 0.1163,0.006 0.165,0.0434 0.0481,0.0376 0.0763,0.0867 0.0847,0.1489 l 0.6239,4.7709 c 0.008,0.0619 -0.007,0.117 -0.0441,0.1651 -0.0369,0.0487 -0.087,0.0769 -0.1482,0.085 z m 1.8625,-1.0884 0.2769,-0.4625 c 0.0306,-0.0544 0.0737,-0.088 0.1311,-0.1008 0.0568,-0.0128 0.1123,-0.004 0.1668,0.0269 0.2235,0.1217 0.4403,0.2245 0.6517,0.3092 0.28,0.1183 0.5781,0.1691 0.8944,0.1513 0.163,-0.009 0.3049,-0.0383 0.4276,-0.0881 0.1126,-0.04 0.2151,-0.0985 0.3065,-0.1768 0.083,-0.0712 0.1432,-0.1492 0.1815,-0.2329 0.0387,-0.0793 0.0562,-0.1617 0.0515,-0.2477 -0.006,-0.1005 -0.0447,-0.1896 -0.116,-0.2673 -0.0666,-0.0638 -0.1556,-0.1186 -0.2686,-0.165 -0.0541,-0.0208 -0.1126,-0.0393 -0.1761,-0.0545 -0.0639,-0.0161 -0.1341,-0.0319 -0.2118,-0.0463 -0.0729,-0.0152 -0.1465,-0.0279 -0.2218,-0.0384 -0.0746,-0.01 -0.1529,-0.0195 -0.2356,-0.0295 -0.0528,-0.007 -0.1113,-0.0138 -0.1738,-0.0226 -0.0632,-0.009 -0.1281,-0.0178 -0.1966,-0.0289 -0.1395,-0.0111 -0.2854,-0.039 -0.4367,-0.084 -0.1559,-0.0343 -0.3055,-0.085 -0.4483,-0.1546 -0.1479,-0.0639 -0.2817,-0.1496 -0.4034,-0.2578 -0.121,-0.0992 -0.2218,-0.2283 -0.3025,-0.3866 -0.0756,-0.1539 -0.1197,-0.3347 -0.1314,-0.5405 -0.0168,-0.3011 0.0312,-0.5613 0.1438,-0.7788 0.1089,-0.2033 0.2578,-0.3724 0.4471,-0.5078 0.1801,-0.12 0.3912,-0.2138 0.6326,-0.28 0.2225,-0.0609 0.4507,-0.0972 0.685,-0.1106 0.2205,-0.0121 0.4181,-0.009 0.5916,0.01 0.0867,0.0101 0.1707,0.0232 0.2514,0.04 0.0793,0.0175 0.1586,0.036 0.237,0.0552 0.0779,0.0248 0.1539,0.0527 0.2275,0.0847 0.0743,0.0316 0.1456,0.0652 0.2145,0.0994 0.0497,0.0263 0.0971,0.0528 0.1411,0.0784 0.0454,0.0265 0.0945,0.0531 0.1483,0.0779 0.0551,0.0357 0.0894,0.0821 0.1021,0.1385 0.0128,0.0575 10e-4,0.1133 -0.0342,0.1681 l -0.277,0.448 c -0.0353,0.0545 -0.0827,0.0884 -0.1425,0.1012 -0.0592,0.0128 -0.1157,0.004 -0.1704,-0.0265 -0.1933,-0.1096 -0.3752,-0.1899 -0.5469,-0.2434 -0.2299,-0.0783 -0.4743,-0.1096 -0.7328,-0.0951 -0.0433,0.002 -0.0897,0.007 -0.1395,0.0144 -0.05,0.008 -0.1015,0.0182 -0.1536,0.0303 -0.1082,0.0306 -0.2121,0.0726 -0.3095,0.125 -0.0468,0.0273 -0.0898,0.0558 -0.1284,0.0871 -0.039,0.0312 -0.0743,0.0665 -0.1056,0.1065 -0.0585,0.08 -0.0847,0.1731 -0.0786,0.2787 0.006,0.1055 0.049,0.1919 0.13,0.2591 0.08,0.0673 0.1822,0.1221 0.3042,0.1627 0.0632,0.0209 0.1281,0.0387 0.1943,0.0538 0.0659,0.0158 0.1345,0.0313 0.2081,0.0457 0.0729,0.0158 0.1442,0.0286 0.2141,0.039 0.0709,0.0104 0.1398,0.0232 0.2081,0.0387 0.0527,0.007 0.1082,0.0151 0.167,0.0269 0.0585,0.0107 0.121,0.0194 0.1886,0.0255 0.0672,0.006 0.1374,0.0148 0.2104,0.0276 0.0726,0.0127 0.1455,0.0289 0.2191,0.0487 0.0387,0.008 0.0787,0.0175 0.1197,0.0296 0.0424,0.0121 0.0823,0.0242 0.1213,0.0366 0.0589,0.0209 0.1261,0.0481 0.2034,0.082 0.0756,0.0343 0.1418,0.0689 0.1963,0.1046 0.04,0.0211 0.076,0.045 0.1082,0.0692 0.0326,0.0249 0.0639,0.0504 0.0945,0.0777 0.1264,0.1129 0.2248,0.247 0.2968,0.4016 0.081,0.1634 0.128,0.362 0.1411,0.5966 0.0152,0.2683 -0.0194,0.5083 -0.1035,0.719 -0.0847,0.2067 -0.2121,0.3795 -0.3818,0.5193 -0.1745,0.1486 -0.3795,0.2605 -0.6155,0.3365 -0.2494,0.081 -0.5183,0.1297 -0.8057,0.1459 -0.2783,0.0158 -0.5209,0.008 -0.7287,-0.0236 -0.1983,-0.0228 -0.3906,-0.0672 -0.5764,-0.1334 -0.0881,-0.0289 -0.1741,-0.0618 -0.2582,-0.0978 -0.0833,-0.036 -0.165,-0.076 -0.2437,-0.1193 -0.0497,-0.0263 -0.0998,-0.0535 -0.1495,-0.0817 -0.0498,-0.0286 -0.1012,-0.0602 -0.1557,-0.0958 -0.0551,-0.0306 -0.0887,-0.074 -0.1015,-0.1314 -0.0127,-0.0568 -0.004,-0.1123 0.0266,-0.1668 z m 10.393,-4.1279 -0.2693,4.8116 c -0.004,0.0619 -0.0285,0.1133 -0.0743,0.154 -0.045,0.041 -0.0991,0.0591 -0.161,0.0558 l -0.5603,-0.0316 c -0.0625,-0.003 -0.1136,-0.0276 -0.1546,-0.0733 -0.0407,-0.0454 -0.0592,-0.0992 -0.0555,-0.1617 l 0.0921,-1.6443 c 0.003,-0.0619 -0.0158,-0.1163 -0.0558,-0.1617 -0.041,-0.0457 -0.0927,-0.0699 -0.1546,-0.0736 l -2.1471,-0.1203 c -0.0626,-0.004 -0.1163,0.0151 -0.1617,0.0561 -0.0457,0.04 -0.0699,0.0921 -0.0736,0.154 l -0.0921,1.6449 c -0.003,0.0619 -0.0276,0.1137 -0.0736,0.154 -0.0451,0.0413 -0.0989,0.0598 -0.1614,0.0561 l -0.5596,-0.0316 c -0.0629,-0.004 -0.1143,-0.0279 -0.1543,-0.0736 -0.041,-0.0454 -0.0598,-0.0991 -0.0561,-0.1617 l 0.2692,-4.8116 c 0.004,-0.0618 0.0279,-0.1136 0.0736,-0.1539 0.0454,-0.0414 0.0992,-0.0592 0.1617,-0.0558 l 0.5603,0.0312 c 0.0619,0.004 0.1136,0.0279 0.154,0.0736 0.0413,0.0454 0.0598,0.0992 0.0557,0.1617 l -0.1025,1.8312 c -0.004,0.0629 0.0152,0.116 0.0562,0.1617 0.0406,0.0461 0.0914,0.0703 0.1539,0.0736 l 2.1472,0.12 c 0.0622,0.003 0.1159,-0.0151 0.1617,-0.0555 0.045,-0.0406 0.0702,-0.092 0.0736,-0.1549 l 0.1025,-1.8312 c 0.003,-0.0619 0.0282,-0.1136 0.0736,-0.154 0.0457,-0.0413 0.0995,-0.0598 0.1617,-0.0564 l 0.5603,0.0319 c 0.0625,0.003 0.1133,0.0279 0.1539,0.0736 0.041,0.0451 0.0599,0.0992 0.0562,0.1617 z m 3.0352,1.3001 -0.1449,0.8578 c -0.0104,0.0609 0.003,0.1167 0.0377,0.1671 0.0359,0.049 0.084,0.08 0.1455,0.0897 l 2.0705,0.3492 c 0.0622,0.0105 0.1103,0.04 0.1456,0.0898 0.0353,0.0501 0.048,0.1055 0.0376,0.167 l -0.0776,0.4605 c -0.0105,0.0622 -0.0407,0.1103 -0.0904,0.1463 -0.0491,0.0352 -0.1049,0.0473 -0.1668,0.0369 l -2.0708,-0.3495 c -0.0612,-0.01 -0.117,0.003 -0.1668,0.0379 -0.0497,0.0357 -0.0799,0.0844 -0.0904,0.1452 l -0.1314,0.7805 c -0.0104,0.0615 0.003,0.117 0.0377,0.1667 0.0359,0.0495 0.084,0.08 0.1455,0.0905 l 2.3895,0.4026 c 0.0622,0.0105 0.1103,0.0407 0.1455,0.0898 0.036,0.0497 0.0481,0.1055 0.0377,0.1674 l -0.0763,0.4537 c -0.0104,0.0616 -0.04,0.11 -0.0904,0.1449 -0.0494,0.036 -0.1049,0.0481 -0.1671,0.0377 l -3.3827,-0.5701 c -0.0619,-0.0104 -0.11,-0.0407 -0.1456,-0.0904 -0.0353,-0.0494 -0.048,-0.1049 -0.0376,-0.1667 l 0.8013,-4.7522 c 0.0104,-0.0612 0.04,-0.1099 0.0904,-0.1445 0.0494,-0.036 0.1049,-0.0484 0.1664,-0.0383 l 3.3834,0.5707 c 0.0619,0.0104 0.1099,0.0397 0.1452,0.0901 0.0357,0.0494 0.0481,0.1049 0.0377,0.1664 l -0.074,0.4403 c -0.0104,0.0608 -0.0406,0.1096 -0.0904,0.1449 -0.0494,0.0353 -0.1049,0.048 -0.167,0.0376 l -2.3902,-0.4027 c -0.0609,-0.0104 -0.1167,0.002 -0.1664,0.037 -0.0498,0.036 -0.08,0.084 -0.0904,0.1462 z m 3.8523,4.9118 c -0.0605,-0.0168 -0.1039,-0.0517 -0.1311,-0.1049 -0.0279,-0.0521 -0.0329,-0.1085 -0.0161,-0.1687 l 1.3162,-4.6358 c 0.0175,-0.0605 0.0511,-0.1056 0.1026,-0.1358 0.0504,-0.0306 0.1058,-0.037 0.1663,-0.0195 l 1.7849,0.5062 c 0.7243,0.2057 1.2591,0.5869 1.605,1.1438 0.1835,0.3012 0.2924,0.6269 0.3277,0.9748 0.0336,0.3744 -0.003,0.7522 -0.1123,1.1351 -0.0575,0.2027 -0.128,0.3889 -0.2104,0.5566 -0.0827,0.1687 -0.1795,0.3247 -0.2901,0.4676 -0.2097,0.2847 -0.4746,0.5058 -0.7939,0.6645 -0.2954,0.1455 -0.6054,0.2265 -0.9294,0.244 -0.3341,0.0202 -0.6793,-0.0202 -1.0346,-0.121 z m 1.2117,-0.5828 0.8235,0.2339 c 0.1755,0.0498 0.3637,0.08 0.5644,0.0928 0.1923,0.009 0.3815,-0.0269 0.5694,-0.1079 0.1802,-0.0736 0.3523,-0.206 0.5166,-0.399 0.157,-0.1849 0.2864,-0.4548 0.3872,-0.8094 0.0995,-0.3512 0.1321,-0.6514 0.0978,-0.8998 -0.0389,-0.2504 -0.1152,-0.4537 -0.2299,-0.6114 -0.1183,-0.1627 -0.2638,-0.2911 -0.4363,-0.3852 -0.1778,-0.0955 -0.3515,-0.1667 -0.5226,-0.2154 l -0.8225,-0.2337 c -0.0605,-0.0171 -0.116,-0.0104 -0.1671,0.0199 -0.0511,0.0302 -0.085,0.0753 -0.1018,0.1351 l -0.8252,2.9065 c -0.0172,0.0598 -0.0121,0.1159 0.0158,0.169 0.0272,0.0525 0.0706,0.0878 0.1307,0.1046 z m 9.8764,3.7928 -0.1825,0.4074 c -0.0256,0.0568 -0.0666,0.0961 -0.1227,0.1183 -0.0582,0.0212 -0.115,0.0195 -0.1718,-0.006 l -2.9209,-1.3082 c -0.0568,-0.0252 -0.0951,-0.0659 -0.1146,-0.1227 -0.0198,-0.0558 -0.0168,-0.112 0.009,-0.1691 l 0.2293,-0.5116 c 0.0255,-0.0575 0.0665,-0.1112 0.124,-0.1617 0.0568,-0.051 0.1146,-0.084 0.1744,-0.0991 0.0353,-0.0104 0.0747,-0.0219 0.1177,-0.0346 0.042,-0.0125 0.0874,-0.0262 0.1361,-0.0407 0.1019,-0.0282 0.2044,-0.0575 0.3076,-0.0874 0.1025,-0.0302 0.2104,-0.0592 0.3233,-0.0877 0.1096,-0.0346 0.2205,-0.0676 0.3318,-0.0995 0.1112,-0.0313 0.2242,-0.0639 0.3385,-0.0961 0.1082,-0.0306 0.2114,-0.0592 0.3105,-0.0858 0.0985,-0.0272 0.19,-0.0527 0.2753,-0.0783 0.1012,-0.0272 0.1909,-0.0544 0.2683,-0.0806 0.0776,-0.0253 0.1489,-0.0525 0.2141,-0.0811 0.0655,-0.0289 0.124,-0.0571 0.1761,-0.0863 0.0528,-0.0296 0.0998,-0.0609 0.1415,-0.0948 0.0393,-0.0296 0.0753,-0.0622 0.1066,-0.0975 0.0319,-0.0363 0.0578,-0.0699 0.0776,-0.1032 0.0447,-0.0649 0.0847,-0.1361 0.1193,-0.2148 0.0296,-0.0662 0.0504,-0.127 0.0632,-0.1848 0.0128,-0.0568 0.0192,-0.1147 0.0185,-0.1728 -0.006,-0.1029 -0.0346,-0.197 -0.0864,-0.2827 -0.0527,-0.0928 -0.1169,-0.1657 -0.1922,-0.2202 -0.0911,-0.0675 -0.1738,-0.1169 -0.2484,-0.1505 -0.153,-0.0689 -0.2935,-0.0891 -0.4212,-0.0632 -0.1277,0.0272 -0.2434,0.0753 -0.3479,0.1442 -0.0568,0.0319 -0.1008,0.0638 -0.1324,0.0941 -0.032,0.0306 -0.0679,0.0602 -0.1072,0.0897 -0.0337,0.0273 -0.0784,0.0457 -0.1352,0.0538 -0.0561,0.009 -0.121,-0.0161 -0.1946,-0.0753 l -0.4131,-0.326 c -0.0447,-0.0414 -0.0712,-0.0911 -0.0786,-0.1503 -0.008,-0.0585 0.0104,-0.1095 0.0568,-0.1522 0.0329,-0.0266 0.0652,-0.0558 0.0971,-0.0864 0.0319,-0.0303 0.0679,-0.0595 0.1072,-0.0898 0.1543,-0.12 0.3284,-0.2178 0.5254,-0.2924 0.1936,-0.0813 0.4121,-0.123 0.6548,-0.1247 0.2359,-0.01 0.4867,0.0447 0.7536,0.164 0.2806,0.1257 0.5075,0.2804 0.6833,0.4639 0.162,0.1775 0.283,0.3707 0.3627,0.5805 0.0776,0.2134 0.1089,0.4191 0.0938,0.6171 -0.0152,0.2087 -0.0622,0.4033 -0.1426,0.5822 -0.08,0.1798 -0.1801,0.3371 -0.2991,0.4736 -0.118,0.1361 -0.2508,0.2494 -0.3973,0.3415 -0.0753,0.0504 -0.1546,0.0964 -0.2387,0.1374 -0.084,0.0411 -0.1704,0.0787 -0.2591,0.1123 -0.0884,0.0343 -0.1829,0.0686 -0.2827,0.1022 -0.0988,0.0346 -0.202,0.0642 -0.3082,0.0904 -0.0444,0.007 -0.0904,0.0172 -0.1365,0.0336 -0.0464,0.0162 -0.0998,0.0313 -0.159,0.0467 -0.0554,0.0182 -0.1136,0.035 -0.1731,0.0528 -0.0608,0.0178 -0.1227,0.033 -0.1865,0.0464 -0.0662,0.0178 -0.1315,0.036 -0.1977,0.0538 -0.0655,0.0175 -0.1314,0.0353 -0.1969,0.0534 -0.032,0.0115 -0.0579,0.0195 -0.0784,0.0236 -0.0201,0.005 -0.045,0.0104 -0.0746,0.0181 -0.0551,0.0175 -0.0827,0.0427 -0.0823,0.0776 6e-4,0.0343 0.0269,0.0632 0.0793,0.0868 l 1.6937,0.7586 c 0.0568,0.0252 0.0962,0.0666 0.118,0.1234 0.0215,0.0571 0.0198,0.1139 -0.006,0.1707 z m 2.8961,2.3593 c -0.3083,-0.1651 -0.559,-0.3812 -0.7536,-0.6491 -0.1936,-0.2675 -0.322,-0.57 -0.3852,-0.9089 -0.0599,-0.3146 -0.0582,-0.6389 0.004,-0.9734 0.0618,-0.3338 0.1808,-0.6632 0.3549,-0.9882 0.1906,-0.3559 0.4152,-0.6524 0.6746,-0.8917 0.2582,-0.2394 0.5358,-0.4158 0.8306,-0.5301 0.2951,-0.1136 0.602,-0.1603 0.9213,-0.1418 0.3193,0.0191 0.6303,0.1092 0.9351,0.2729 0.3002,0.161 0.5446,0.3694 0.7335,0.6262 0.1882,0.2565 0.3179,0.5412 0.3868,0.8527 0.0696,0.3123 0.0773,0.6424 0.0232,0.9919 -0.0538,0.3493 -0.1744,0.6968 -0.3603,1.044 -0.1721,0.321 -0.3828,0.599 -0.6319,0.8353 -0.2491,0.2363 -0.5217,0.4172 -0.8171,0.5412 -0.319,0.1395 -0.6437,0.201 -0.9721,0.1849 -0.3291,-0.0162 -0.6437,-0.1049 -0.9438,-0.2659 z m 2.1357,-3.9797 c -0.1345,-0.0723 -0.2887,-0.1153 -0.4612,-0.1291 -0.1721,-0.0135 -0.3482,0.0128 -0.528,0.0793 -0.1802,0.0666 -0.3597,0.1802 -0.5375,0.3402 -0.1785,0.1603 -0.3412,0.3778 -0.489,0.6524 -0.0995,0.1859 -0.1769,0.3852 -0.2313,0.5976 -0.0545,0.2135 -0.074,0.4208 -0.0595,0.6212 0.0145,0.201 0.0699,0.3889 0.1667,0.5637 0.0975,0.1744 0.2471,0.3159 0.4498,0.4248 0.1394,0.0746 0.2971,0.1156 0.4732,0.1227 0.1755,0.007 0.3553,-0.0262 0.5378,-0.0985 0.1842,-0.0729 0.3627,-0.1896 0.5351,-0.3499 0.1735,-0.1607 0.3291,-0.3697 0.4669,-0.6269 0.1136,-0.2107 0.1993,-0.4396 0.2578,-0.686 0.0588,-0.246 0.0713,-0.4652 0.0383,-0.6575 -0.0658,-0.3835 -0.2722,-0.6678 -0.6191,-0.854 z m 5.6916,2.7948 -2.7219,3.9855 c -0.0353,0.0514 -0.0831,0.0827 -0.1426,0.0944 -0.0601,0.0108 -0.1159,-7e-4 -0.1673,-0.0359 l -0.4636,-0.3163 c -0.0511,-0.0353 -0.0823,-0.0831 -0.0937,-0.1432 -0.0111,-0.0599 3e-4,-0.1153 0.0352,-0.1667 l 1.7445,-2.5539 c 0.0353,-0.0518 0.0441,-0.0921 0.0273,-0.1217 -0.0182,-0.0296 -0.0568,-0.0383 -0.117,-0.0272 l -0.6171,0.1008 c -0.0575,0.007 -0.112,-0.006 -0.1634,-0.0417 -0.0518,-0.0353 -0.0813,-0.0813 -0.0887,-0.1391 l -0.0851,-0.563 c -0.0111,-0.0605 0.002,-0.1153 0.0387,-0.1654 0.037,-0.0501 0.0847,-0.0787 0.1415,-0.0861 l 2.0544,-0.3297 c 0.0602,-0.0118 0.1291,-0.008 0.2074,0.01 0.077,0.0184 0.1412,0.0453 0.1929,0.08 l 0.1603,0.1102 c 0.0518,0.0346 0.0831,0.082 0.0945,0.1425 0.0111,0.0595 -10e-4,0.1153 -0.0363,0.1667 z"
         style="fill:#000000;fill-rule:evenodd"
         id="path10" />
    </g>
  </g>
</svg>